<svg width="28" height="25" viewBox="0 0 28 25" fill="none" xmlns="http://www.w3.org/2000/svg">
<path d="M14 5.79087C15.4439 5.79087 16.621 4.66085 16.621 3.21693C16.621 1.75732 15.4439 0.611603 14 0.611603C12.5561 0.611603 11.3946 1.75732 11.3946 3.21693C11.3946 4.66085 12.5561 5.79087 14 5.79087ZM2.63697 14.1876H25.363C26.3204 14.1876 27.1365 13.3871 27.1365 12.3984C27.1365 11.4253 26.3204 10.6092 25.363 10.6092H2.63697C1.71098 10.6092 0.863464 11.4253 0.863464 12.3984C0.863464 13.3871 1.71098 14.1876 2.63697 14.1876ZM14 24.3421C15.4439 24.3421 16.621 23.212 16.621 21.7524C16.621 20.3085 15.4439 19.1628 14 19.1628C12.5561 19.1628 11.3946 20.3085 11.3946 21.7524C11.3946 23.212 12.5561 24.3421 14 24.3421Z" fill="#F4F4F4"/>
</svg>
