<svg width="50" height="50" viewBox="0 0 50 50" fill="none" xmlns="http://www.w3.org/2000/svg">
<path d="M25 17.7909C26.4439 17.7909 27.621 16.6608 27.621 15.2169C27.621 13.7573 26.4439 12.6116 25 12.6116C23.5561 12.6116 22.3947 13.7573 22.3947 15.2169C22.3947 16.6608 23.5561 17.7909 25 17.7909ZM13.637 26.1876H36.363C37.3204 26.1876 38.1365 25.3871 38.1365 24.3984C38.1365 23.4253 37.3204 22.6092 36.363 22.6092H13.637C12.711 22.6092 11.8635 23.4253 11.8635 24.3984C11.8635 25.3871 12.711 26.1876 13.637 26.1876ZM25 36.3421C26.4439 36.3421 27.621 35.212 27.621 33.7524C27.621 32.3085 26.4439 31.1628 25 31.1628C23.5561 31.1628 22.3947 32.3085 22.3947 33.7524C22.3947 35.212 23.5561 36.3421 25 36.3421Z" fill="#1C1C1E"/>
</svg>
