<svg width="50" height="50" viewBox="0 0 50 50" fill="none" xmlns="http://www.w3.org/2000/svg">
<path d="M14.8504 32.6198C14.1912 33.279 14.1598 34.4561 14.8661 35.131C15.541 35.8372 16.7338 35.8058 17.393 35.1467L25.0049 27.5347L32.6169 35.1467C33.2917 35.8215 34.4531 35.8372 35.128 35.131C35.8343 34.4561 35.8186 33.279 35.1437 32.6041L27.5318 24.9922L35.1437 17.3959C35.8186 16.7053 35.8343 15.5439 35.128 14.869C34.4531 14.1628 33.2917 14.1785 32.6169 14.8533L25.0049 22.4653L17.393 14.8533C16.7338 14.1942 15.541 14.1628 14.8661 14.869C14.1598 15.5439 14.1912 16.721 14.8504 17.3802L22.4624 24.9922L14.8504 32.6198Z" fill="#1C1C1E"/>
</svg>
