<svg width="22" height="23" viewBox="0 0 22 23" fill="none" xmlns="http://www.w3.org/2000/svg">
<path d="M0.845519 19.026C0.18634 19.6852 0.15495 20.8623 0.861214 21.5372C1.53609 22.2434 2.72889 22.2121 3.38807 21.5529L11 13.9409L18.612 21.5529C19.2869 22.2277 20.4483 22.2434 21.1231 21.5372C21.8294 20.8623 21.8137 19.6852 21.1388 19.0103L13.5269 11.3984L21.1388 3.80211C21.8137 3.11154 21.8294 1.95013 21.1231 1.27525C20.4483 0.568987 19.2869 0.584682 18.612 1.25956L11 8.87151L3.38807 1.25956C2.72889 0.600376 1.53609 0.568987 0.861214 1.27525C0.15495 1.95013 0.18634 3.12723 0.845519 3.78641L8.45748 11.3984L0.845519 19.026Z" fill="#F4F4F4"/>
</svg>
