<svg width="50" height="50" viewBox="0 0 50 50" fill="none" xmlns="http://www.w3.org/2000/svg">
<path d="M15.0495 39.1514C15.7401 39.5595 16.7289 39.4496 17.2782 38.6492L35.3271 11.8426C35.9235 10.9637 35.6097 9.99059 34.8877 9.56683C34.2128 9.19015 33.3025 9.33141 32.7218 10.1946L14.6729 36.9228C14.0608 37.8174 14.3276 38.7277 15.0495 39.1514ZM15.5361 24.3827C19.1302 24.3827 21.3274 21.5419 21.3274 16.9748C21.3274 12.3762 19.1145 9.61391 15.5361 9.61391C11.9734 9.61391 9.7447 12.3919 9.7447 16.9748C9.7447 21.5576 11.9577 24.3827 15.5361 24.3827ZM15.5361 21.793C13.8253 21.793 12.8523 20.0666 12.8523 16.9748C12.8523 13.93 13.841 12.2035 15.5361 12.2035C17.2311 12.2035 18.2199 13.9143 18.2199 16.9748C18.2199 20.0666 17.2468 21.793 15.5361 21.793ZM34.4482 39.1671C38.0423 39.1671 40.2396 36.3264 40.2396 31.7592C40.2396 27.1606 38.011 24.3984 34.4482 24.3984C30.8698 24.3984 28.6412 27.1763 28.6412 31.7592C28.6412 36.3421 30.8541 39.1671 34.4482 39.1671ZM34.4482 36.5775C32.7375 36.5775 31.7644 34.8511 31.7644 31.7592C31.7644 28.7144 32.7532 26.988 34.4482 26.988C36.1433 26.988 37.1163 28.6987 37.1163 31.7592C37.1163 34.8511 36.1433 36.5775 34.4482 36.5775Z" fill="#1C1C1E"/>
</svg>
