<svg width="32" height="31" viewBox="0 0 32 31" fill="none" xmlns="http://www.w3.org/2000/svg">
<path d="M6.04952 30.1514C6.74009 30.5595 7.72886 30.4496 8.27817 29.6492L26.3271 2.84257C26.9235 1.96366 26.6096 0.990585 25.8877 0.566827C25.2128 0.190153 24.3025 0.331405 23.7218 1.19462L5.67284 27.9228C5.06075 28.8174 5.32756 29.7277 6.04952 30.1514ZM6.53605 15.3827C10.1302 15.3827 12.3274 12.5419 12.3274 7.97475C12.3274 3.37619 10.1145 0.613911 6.53605 0.613911C2.97335 0.613911 0.74469 3.39188 0.74469 7.97475C0.74469 12.5576 2.95765 15.3827 6.53605 15.3827ZM6.53605 12.793C4.82533 12.793 3.85225 11.0666 3.85225 7.97475C3.85225 4.92997 4.84102 3.20355 6.53605 3.20355C8.23109 3.20355 9.21986 4.91427 9.21986 7.97475C9.21986 11.0666 8.24678 12.793 6.53605 12.793ZM25.4482 30.1671C29.0423 30.1671 31.2396 27.3264 31.2396 22.7592C31.2396 18.1606 29.0109 15.3984 25.4482 15.3984C21.8698 15.3984 19.6412 18.1763 19.6412 22.7592C19.6412 27.3421 21.8541 30.1671 25.4482 30.1671ZM25.4482 27.5775C23.7375 27.5775 22.7644 25.8511 22.7644 22.7592C22.7644 19.7144 23.7532 17.988 25.4482 17.988C27.1433 17.988 28.1163 19.6987 28.1163 22.7592C28.1163 25.8511 27.1433 27.5775 25.4482 27.5775Z" fill="#F4F4F4"/>
</svg>
