<svg width="50" height="50" viewBox="0 0 50 50" fill="none" xmlns="http://www.w3.org/2000/svg">
<path d="M26.287 25.0105L35.1859 11.8426C35.4213 11.4973 35.5312 11.1991 35.5312 10.8381C35.5312 10.1004 34.9034 9.55113 34.15 9.55113C33.4909 9.55113 33.1456 9.77086 32.659 10.4771L23.7915 23.6921L14.8298 36.9071C14.5944 37.2367 14.4688 37.5349 14.4688 37.9429C14.4688 38.7277 15.128 39.2299 15.9127 39.2299C16.5248 39.2299 16.8701 38.9945 17.3253 38.3196L26.287 25.0105ZM9.98012 17.4456C9.98012 18.1676 10.5608 18.7326 11.2671 18.7326H14.2805V21.746C14.2805 22.4836 14.8769 23.0486 15.5675 23.0329C16.3051 23.0329 16.8701 22.4679 16.8701 21.746V18.7326H19.8835C20.6055 18.7326 21.1705 18.1676 21.1705 17.4456C21.1705 16.7393 20.6055 16.1586 19.8835 16.1586H16.8701V13.1295C16.8701 12.4233 16.2894 11.8426 15.5675 11.8426C14.8612 11.8426 14.2805 12.4233 14.2805 13.1295V16.1586H11.2671C10.5608 16.1586 9.98012 16.7393 9.98012 17.4456ZM28.8138 32.387C28.8138 33.109 29.3945 33.6897 30.1008 33.6897H38.7172C39.4392 33.6897 40.0199 33.109 40.0199 32.387C40.0199 31.6807 39.4392 31.1 38.7172 31.1H30.1008C29.3945 31.1 28.8138 31.6807 28.8138 32.387Z" fill="#1C1C1E"/>
</svg>
