<svg width="28" height="27" viewBox="0 0 28 27" fill="none" xmlns="http://www.w3.org/2000/svg">
<path d="M2.637 15.1719H12.2108V24.7457C12.2108 25.7188 13.0112 26.5349 14 26.5349C14.9888 26.5349 15.7892 25.7188 15.7892 24.7457V15.1719H25.363C26.3361 15.1719 27.1522 14.3714 27.1522 13.3827C27.1522 12.3939 26.3361 11.5935 25.363 11.5935H15.7892V2.01967C15.7892 1.0466 14.9888 0.230469 14 0.230469C13.0112 0.230469 12.2108 1.0466 12.2108 2.01967V11.5935H2.637C1.66392 11.5935 0.847794 12.3939 0.847794 13.3827C0.847794 14.3714 1.66392 15.1719 2.637 15.1719Z" fill="#1C1C1E"/>
</svg>
