<svg width="32" height="31" viewBox="0 0 32 31" fill="none" xmlns="http://www.w3.org/2000/svg">
<path d="M17.287 16.0105L26.1859 2.84257C26.4213 2.49728 26.5312 2.19908 26.5312 1.8381C26.5312 1.10045 25.9034 0.551132 25.1501 0.551132C24.4909 0.551132 24.1456 0.770859 23.6591 1.47712L14.7915 14.6921L5.82981 27.9071C5.59439 28.2367 5.46883 28.5349 5.46883 28.9429C5.46883 29.7277 6.12801 30.2299 6.91275 30.2299C7.52485 30.2299 7.87013 29.9945 8.32528 29.3196L17.287 16.0105ZM0.980133 8.44559C0.980133 9.16755 1.56084 9.73256 2.2671 9.73256H5.2805V12.746C5.2805 13.4836 5.8769 14.0486 6.56747 14.0329C7.30512 14.0329 7.87013 13.4679 7.87013 12.746V9.73256H10.8835C11.6055 9.73256 12.1705 9.16755 12.1705 8.44559C12.1705 7.73933 11.6055 7.15862 10.8835 7.15862H7.87013V4.12954C7.87013 3.42327 7.28942 2.84257 6.56747 2.84257C5.8612 2.84257 5.2805 3.42327 5.2805 4.12954V7.15862H2.2671C1.56084 7.15862 0.980133 7.73933 0.980133 8.44559ZM19.8138 23.387C19.8138 24.109 20.3945 24.6897 21.1008 24.6897H29.7172C30.4392 24.6897 31.0199 24.109 31.0199 23.387C31.0199 22.6807 30.4392 22.1 29.7172 22.1H21.1008C20.3945 22.1 19.8138 22.6807 19.8138 23.387Z" fill="#F4F4F4"/>
</svg>
